# xmcd CD database file
#
# Track frame offsets:
#	150
#	18334
#	37557
#	46709
#	67069
#	88482
#	97978
#	118108
#	138132
#	150775
#	178165
#	203058
#
# Disc length: 2840 seconds
#
# Revision: 0
# Processed by: cddbd v1.5.1PL0 Copyright (c) Steve Scherf et al.
# Submitted via: CDex 1.51
#
DISCID=8f0b160c
DTITLE=Smokey and Miho - Ningen no Tochi
DYEAR=2000
DGENRE=Jazz
TTITLE0=Ocean Iin Your Eyes
TTITLE1=Summer Rain
TTITLE2=Orixa and Iemanja
TTITLE3=Blue Glasses
TTITLE4=Nzage
TTITLE5=Tempo de Amor
TTITLE6=conto de passaro
TTITLE7=Consolacao
TTITLE8=Bocoche
TTITLE9=Canto de Imanja
TTITLE10=Cantod do Caboclo Pedra Preta
TTITLE11=Nana
EXTD=YEAR: 20003
EXTT0=
EXTT1=
EXTT2=
EXTT3=
EXTT4=
EXTT5=
EXTT6=
EXTT7=
EXTT8=
EXTT9=
EXTT10=
EXTT11=
PLAYORDER=
